<svg width="496" height="108" viewBox="0 0 496 108" fill="none" xmlns="http://www.w3.org/2000/svg">
<rect width="496" height="108" rx="12" fill="#FCFCFC"/>
<rect x="20" y="20" width="40" height="40" rx="20" fill="#CABDFF"/>
<path fill-rule="evenodd" clip-rule="evenodd" d="M37.4889 33.0544C37.376 32.5274 36.624 32.5274 36.5111 33.0544L35.3166 38.6289C35.0202 40.0121 33.7978 41.0003 32.3832 41.0003H31C30.4477 41.0003 30 40.5526 30 40.0003C30 39.448 30.4477 39.0003 31 39.0003H32.3832C32.8547 39.0003 33.2622 38.6709 33.361 38.2098L34.5555 32.6354C35.1201 30.0005 38.8799 30.0004 39.4445 32.6354L42.5111 46.9461C42.624 47.4731 43.376 47.4731 43.4889 46.9461L44.6834 41.3717C44.9798 39.9885 46.2022 39.0003 47.6168 39.0003H49C49.5523 39.0003 50 39.448 50 40.0003C50 40.5526 49.5523 41.0003 49 41.0003H47.6168C47.1453 41.0003 46.7378 41.3297 46.639 41.7907L45.4445 47.3652C44.8799 50.0001 41.1201 50.0001 40.5555 47.3652L37.4889 33.0544Z" fill="#1A1D1F"/>
<path d="M85.0252 26.7354H83.2987C83.2494 26.4523 83.1586 26.2015 83.0263 25.983C82.8939 25.7614 82.7293 25.5736 82.5323 25.4197C82.3353 25.2659 82.1107 25.1504 81.8583 25.0735C81.609 24.9935 81.3397 24.9535 81.0504 24.9535C80.5365 24.9535 80.081 25.0827 79.6839 25.3413C79.2869 25.5967 78.9761 25.9722 78.7514 26.4677C78.5268 26.9601 78.4144 27.5618 78.4144 28.2727C78.4144 28.996 78.5268 29.6054 78.7514 30.1009C78.9792 30.5933 79.29 30.9657 79.6839 31.218C80.081 31.4673 80.5349 31.592 81.0458 31.592C81.329 31.592 81.5936 31.555 81.8398 31.4812C82.0891 31.4042 82.3123 31.2919 82.5092 31.1442C82.7093 30.9964 82.877 30.8149 83.0124 30.5994C83.1509 30.384 83.2463 30.1378 83.2987 29.8608L85.0252 29.87C84.9606 30.3194 84.8205 30.741 84.6051 31.1349C84.3928 31.5289 84.1142 31.8767 83.7695 32.1783C83.4248 32.4768 83.0217 32.7107 82.56 32.88C82.0984 33.0462 81.5859 33.1293 81.0227 33.1293C80.1918 33.1293 79.45 32.9369 78.7976 32.5522C78.1451 32.1675 77.6312 31.612 77.2557 30.8857C76.8802 30.1593 76.6925 29.2884 76.6925 28.2727C76.6925 27.254 76.8817 26.383 77.2603 25.6598C77.6388 24.9335 78.1544 24.378 78.8068 23.9933C79.4593 23.6085 80.1979 23.4162 81.0227 23.4162C81.549 23.4162 82.0384 23.4901 82.4908 23.6378C82.9432 23.7855 83.3464 24.0025 83.7003 24.2887C84.0542 24.5719 84.3451 24.9196 84.5728 25.332C84.8036 25.7414 84.9544 26.2092 85.0252 26.7354ZM89.529 33.1385C88.8181 33.1385 88.2041 32.9908 87.687 32.6953C87.1731 32.3968 86.7776 31.9751 86.5006 31.4304C86.2236 30.8826 86.0851 30.2378 86.0851 29.4961C86.0851 28.7667 86.2236 28.1265 86.5006 27.5756C86.7807 27.0217 87.1715 26.5908 87.6732 26.283C88.1748 25.9722 88.7642 25.8168 89.4413 25.8168C89.8783 25.8168 90.2907 25.8875 90.6785 26.0291C91.0694 26.1676 91.4141 26.383 91.7126 26.6754C92.0142 26.9678 92.2512 27.3402 92.4235 27.7926C92.5959 28.242 92.6821 28.7775 92.6821 29.3991V29.9116H86.8699V28.7852H91.0801C91.0771 28.4651 91.0078 28.1804 90.8724 27.9311C90.737 27.6787 90.5477 27.4802 90.3046 27.3356C90.0645 27.1909 89.7844 27.1186 89.4644 27.1186C89.1228 27.1186 88.8227 27.2017 88.5642 27.3679C88.3056 27.531 88.104 27.7464 87.9594 28.0142C87.8178 28.2789 87.7455 28.5697 87.7424 28.8867V29.87C87.7424 30.2824 87.8178 30.6364 87.9686 30.9318C88.1194 31.2242 88.3303 31.4489 88.6011 31.6058C88.8719 31.7597 89.1889 31.8366 89.5521 31.8366C89.7952 31.8366 90.0153 31.8028 90.2122 31.7351C90.4092 31.6643 90.58 31.5612 90.7247 31.4258C90.8693 31.2904 90.9786 31.1226 91.0524 30.9226L92.6128 31.098C92.5143 31.5104 92.3266 31.8705 92.0496 32.1783C91.7757 32.483 91.4248 32.7199 90.997 32.8892C90.5692 33.0554 90.0799 33.1385 89.529 33.1385ZM95.577 30.7379L98.4161 25.9091H100.133V33H98.5177V28.1665L95.6878 33H93.9659V25.9091H95.577V30.7379ZM97.9591 23.4716H99.2102C99.2102 24.0102 99.0147 24.4472 98.6239 24.7827C98.2361 25.1151 97.7098 25.2812 97.045 25.2812C96.3864 25.2812 95.8617 25.1151 95.4708 24.7827C95.083 24.4472 94.8907 24.0102 94.8938 23.4716H96.1356C96.1356 23.6932 96.2033 23.8917 96.3387 24.0671C96.4772 24.2395 96.7127 24.3256 97.045 24.3256C97.3713 24.3256 97.6036 24.2395 97.7421 24.0671C97.8837 23.8948 97.956 23.6963 97.9591 23.4716ZM107.643 25.9091V33H106.036V25.9091H107.643ZM106.89 29.1129V30.4794C106.709 30.5594 106.502 30.6317 106.271 30.6964C106.044 30.7579 105.802 30.8072 105.547 30.8441C105.294 30.881 105.042 30.8995 104.79 30.8995C103.842 30.8995 103.092 30.6871 102.541 30.2624C101.994 29.8346 101.72 29.1683 101.72 28.2635V25.8999H103.317V28.2635C103.317 28.5682 103.371 28.8129 103.479 28.9975C103.586 29.1822 103.749 29.3176 103.968 29.4038C104.186 29.4869 104.46 29.5284 104.79 29.5284C105.159 29.5284 105.51 29.4915 105.842 29.4176C106.175 29.3438 106.524 29.2422 106.89 29.1129ZM111.235 33.1431C110.785 33.1431 110.381 33.0631 110.02 32.9031C109.663 32.7399 109.38 32.4999 109.171 32.1829C108.965 31.8659 108.862 31.475 108.862 31.0103C108.862 30.6102 108.936 30.2794 109.083 30.0178C109.231 29.7562 109.433 29.5469 109.688 29.3899C109.944 29.233 110.231 29.1145 110.551 29.0344C110.875 28.9513 111.208 28.8913 111.553 28.8544C111.969 28.8113 112.306 28.7728 112.564 28.739C112.823 28.7021 113.01 28.6467 113.127 28.5728C113.247 28.4959 113.307 28.3774 113.307 28.2173V28.1896C113.307 27.8419 113.204 27.5726 112.998 27.3817C112.792 27.1909 112.495 27.0955 112.107 27.0955C111.698 27.0955 111.373 27.1848 111.133 27.3633C110.896 27.5418 110.736 27.7526 110.653 27.9957L109.093 27.7741C109.216 27.3433 109.419 26.9832 109.702 26.6939C109.985 26.4015 110.331 26.183 110.741 26.0384C111.15 25.8906 111.602 25.8168 112.098 25.8168C112.44 25.8168 112.78 25.8568 113.118 25.9368C113.457 26.0168 113.766 26.1491 114.046 26.3338C114.326 26.5154 114.551 26.7631 114.72 27.0771C114.892 27.391 114.979 27.7834 114.979 28.2543V33H113.372V32.0259H113.317C113.215 32.2229 113.072 32.4076 112.887 32.5799C112.706 32.7492 112.476 32.8861 112.199 32.9908C111.926 33.0923 111.604 33.1431 111.235 33.1431ZM111.669 31.9151C112.004 31.9151 112.295 31.849 112.541 31.7166C112.787 31.5812 112.977 31.4027 113.109 31.1811C113.244 30.9595 113.312 30.7179 113.312 30.4563V29.6207C113.26 29.6638 113.17 29.7038 113.044 29.7408C112.921 29.7777 112.783 29.81 112.629 29.8377C112.475 29.8654 112.323 29.89 112.172 29.9116C112.021 29.9331 111.89 29.9516 111.779 29.967C111.53 30.0008 111.307 30.0562 111.11 30.1332C110.913 30.2101 110.758 30.3178 110.644 30.4563C110.53 30.5917 110.473 30.7672 110.473 30.9826C110.473 31.2904 110.585 31.5227 110.81 31.6797C111.035 31.8366 111.321 31.9151 111.669 31.9151ZM119.622 33.1385C118.914 33.1385 118.306 32.9831 117.799 32.6722C117.294 32.3614 116.904 31.9321 116.631 31.3842C116.36 30.8333 116.224 30.1993 116.224 29.4822C116.224 28.7621 116.363 28.1265 116.64 27.5756C116.917 27.0217 117.308 26.5908 117.812 26.283C118.32 25.9722 118.92 25.8168 119.613 25.8168C120.188 25.8168 120.698 25.9229 121.141 26.1353C121.587 26.3446 121.943 26.6416 122.207 27.0263C122.472 27.4079 122.623 27.8542 122.66 28.3651H121.062C120.998 28.0234 120.844 27.7388 120.601 27.511C120.361 27.2802 120.039 27.1648 119.636 27.1648C119.294 27.1648 118.994 27.2571 118.736 27.4418C118.477 27.6233 118.276 27.8849 118.131 28.2266C117.989 28.5682 117.919 28.9775 117.919 29.4545C117.919 29.9377 117.989 30.3532 118.131 30.701C118.272 31.0457 118.471 31.3119 118.726 31.4996C118.985 31.6843 119.288 31.7766 119.636 31.7766C119.882 31.7766 120.102 31.7305 120.296 31.6381C120.493 31.5427 120.658 31.4058 120.79 31.2273C120.922 31.0488 121.013 30.8318 121.062 30.5763H122.66C122.62 31.078 122.472 31.5227 122.216 31.9105C121.961 32.2952 121.613 32.5968 121.173 32.8153C120.733 33.0308 120.216 33.1385 119.622 33.1385Z" fill="#6F767E"/>
<path fill-rule="evenodd" clip-rule="evenodd" d="M142.666 27.9997C142.666 31.6816 139.682 34.6663 136 34.6663C132.318 34.6663 129.333 31.6816 129.333 27.9997C129.333 24.3178 132.318 21.333 136 21.333C139.682 21.333 142.666 24.3178 142.666 27.9997ZM136 27.333C136.368 27.333 136.666 27.6315 136.666 27.9997V31.3336C136.666 31.7018 136.368 32.0003 136 32.0003C135.631 32.0003 135.333 31.7018 135.333 31.3336V27.9997C135.333 27.6315 135.631 27.333 136 27.333ZM136 25.9997C136.368 25.9997 136.666 25.7012 136.666 25.333C136.666 24.9648 136.368 24.6663 136 24.6663C135.631 24.6663 135.333 24.9648 135.333 25.333C135.333 25.7012 135.631 25.9997 136 25.9997Z" fill="#9A9FA5"/>
<path d="M93.3011 46.0909V81H86.9773V52.2443H86.7727L78.608 57.4602V51.6648L87.2841 46.0909H93.3011ZM114.924 46.0909V81H108.6V52.2443H108.395L100.23 57.4602V51.6648L108.907 46.0909H114.924ZM127.738 76.2273L127.516 78.1023C127.357 79.5341 127.073 80.9886 126.664 82.4659C126.266 83.9545 125.846 85.3239 125.403 86.5739C124.959 87.8239 124.602 88.8068 124.329 89.5227H120.17C120.329 88.8295 120.545 87.8864 120.817 86.6932C121.102 85.5 121.374 84.1591 121.636 82.6705C121.897 81.1818 122.073 79.6705 122.164 78.1364L122.283 76.2273H127.738ZM133.142 81V76.4318L145.261 64.5511C146.42 63.3807 147.386 62.3409 148.159 61.4318C148.931 60.5227 149.511 59.642 149.897 58.7898C150.284 57.9375 150.477 57.0284 150.477 56.0625C150.477 54.9602 150.227 54.017 149.727 53.233C149.227 52.4375 148.539 51.8239 147.664 51.392C146.789 50.9602 145.795 50.7443 144.681 50.7443C143.534 50.7443 142.528 50.983 141.664 51.4602C140.801 51.9261 140.13 52.5909 139.653 53.4545C139.187 54.3182 138.954 55.3466 138.954 56.5398H132.937C132.937 54.3239 133.443 52.3977 134.454 50.7614C135.466 49.125 136.858 47.858 138.63 46.9602C140.414 46.0625 142.46 45.6136 144.767 45.6136C147.108 45.6136 149.164 46.0511 150.937 46.9261C152.71 47.8011 154.085 49 155.062 50.5227C156.051 52.0455 156.545 53.7841 156.545 55.7386C156.545 57.0455 156.295 58.3295 155.795 59.5909C155.295 60.8523 154.414 62.25 153.153 63.7841C151.903 65.3182 150.147 67.1761 147.886 69.358L141.869 75.4773V75.7159H157.073V81H133.142ZM180.179 74.4545V72.6136C180.179 71.2614 180.463 70.017 181.031 68.8807C181.611 67.7443 182.452 66.8295 183.554 66.1364C184.656 65.4432 185.991 65.0966 187.56 65.0966C189.173 65.0966 190.526 65.4432 191.616 66.1364C192.707 66.8182 193.531 67.7273 194.088 68.8636C194.656 70 194.94 71.25 194.94 72.6136V74.4545C194.94 75.8068 194.656 77.0511 194.088 78.1875C193.52 79.3239 192.685 80.2386 191.582 80.9318C190.491 81.625 189.151 81.9716 187.56 81.9716C185.969 81.9716 184.622 81.625 183.52 80.9318C182.418 80.2386 181.582 79.3239 181.014 78.1875C180.457 77.0511 180.179 75.8068 180.179 74.4545ZM184.628 72.6136V74.4545C184.628 75.3523 184.844 76.1761 185.276 76.9261C185.707 77.6761 186.469 78.0511 187.56 78.0511C188.662 78.0511 189.418 77.6818 189.827 76.9432C190.247 76.1932 190.457 75.3636 190.457 74.4545V72.6136C190.457 71.7045 190.258 70.875 189.861 70.125C189.463 69.3636 188.696 68.983 187.56 68.983C186.491 68.983 185.736 69.3636 185.293 70.125C184.849 70.875 184.628 71.7045 184.628 72.6136ZM162.435 54.4773V52.6364C162.435 51.2727 162.724 50.0227 163.304 48.8864C163.883 47.75 164.724 46.8409 165.827 46.1591C166.929 45.4659 168.264 45.1193 169.832 45.1193C171.435 45.1193 172.781 45.4659 173.872 46.1591C174.974 46.8409 175.804 47.75 176.361 48.8864C176.918 50.0227 177.196 51.2727 177.196 52.6364V54.4773C177.196 55.8409 176.912 57.0909 176.344 58.2273C175.787 59.3523 174.957 60.2557 173.855 60.9375C172.753 61.6193 171.412 61.9602 169.832 61.9602C168.23 61.9602 166.878 61.6193 165.776 60.9375C164.685 60.2557 163.855 59.3466 163.287 58.2102C162.719 57.0739 162.435 55.8295 162.435 54.4773ZM166.918 52.6364V54.4773C166.918 55.3864 167.128 56.2159 167.548 56.9659C167.98 57.7045 168.741 58.0739 169.832 58.0739C170.923 58.0739 171.673 57.7045 172.082 56.9659C172.503 56.2159 172.713 55.3864 172.713 54.4773V52.6364C172.713 51.7273 172.514 50.8977 172.116 50.1477C171.719 49.3864 170.957 49.0057 169.832 49.0057C168.753 49.0057 167.997 49.3864 167.565 50.1477C167.133 50.9091 166.918 51.7386 166.918 52.6364ZM164.378 81L188.378 46.0909H192.639L168.639 81H164.378Z" fill="#1A1D1F"/>
<rect x="425" y="8" width="63" height="24" rx="8" fill="#FFE7E4"/>
<path d="M442 21L437 26L432 21" stroke="#FF6A55" stroke-width="2" stroke-linecap="round" stroke-linejoin="round"/>
<path d="M437 14L437 26" stroke="#FF6A55" stroke-width="2" stroke-linecap="round"/>
<path d="M452.933 24.1193C452.297 24.1193 451.73 24.0099 451.233 23.7912C450.739 23.5696 450.348 23.2656 450.061 22.8793C449.777 22.4901 449.631 22.0412 449.622 21.5327H451.48C451.491 21.7457 451.561 21.9332 451.689 22.0952C451.82 22.2543 451.993 22.3778 452.209 22.4659C452.425 22.554 452.668 22.598 452.938 22.598C453.219 22.598 453.467 22.5483 453.683 22.4489C453.899 22.3494 454.068 22.2116 454.19 22.0355C454.313 21.8594 454.374 21.6562 454.374 21.4261C454.374 21.1932 454.308 20.9872 454.178 20.8082C454.05 20.6264 453.865 20.4844 453.624 20.3821C453.385 20.2798 453.101 20.2287 452.771 20.2287H451.957V18.8736H452.771C453.05 18.8736 453.295 18.8253 453.509 18.7287C453.724 18.6321 453.892 18.4986 454.011 18.3281C454.131 18.1548 454.19 17.9531 454.19 17.723C454.19 17.5043 454.138 17.3125 454.033 17.1477C453.93 16.9801 453.786 16.8494 453.598 16.7557C453.413 16.6619 453.197 16.6151 452.95 16.6151C452.7 16.6151 452.472 16.6605 452.264 16.7514C452.057 16.8395 451.891 16.9659 451.766 17.1307C451.641 17.2955 451.574 17.4886 451.565 17.7102H449.797C449.805 17.2074 449.949 16.7642 450.227 16.3807C450.506 15.9972 450.881 15.6974 451.352 15.4815C451.827 15.2628 452.362 15.1534 452.959 15.1534C453.561 15.1534 454.088 15.2628 454.54 15.4815C454.991 15.7003 455.342 15.9957 455.592 16.3679C455.845 16.7372 455.97 17.152 455.967 17.6122C455.97 18.1009 455.818 18.5085 455.511 18.8352C455.207 19.1619 454.811 19.3693 454.322 19.4574V19.5256C454.964 19.608 455.453 19.831 455.788 20.1946C456.126 20.5554 456.294 21.0071 456.291 21.5497C456.294 22.0469 456.151 22.4886 455.861 22.875C455.574 23.2614 455.178 23.5653 454.672 23.7869C454.166 24.0085 453.587 24.1193 452.933 24.1193ZM457.843 24L461.461 16.8409V16.7812H457.246V15.2727H463.37V16.8026L459.748 24H457.843ZM464.092 24.1108C463.811 24.1108 463.57 24.0114 463.368 23.8125C463.169 23.6108 463.07 23.3693 463.07 23.0881C463.07 22.8097 463.169 22.571 463.368 22.3722C463.57 22.1733 463.811 22.0739 464.092 22.0739C464.365 22.0739 464.604 22.1733 464.808 22.3722C465.013 22.571 465.115 22.8097 465.115 23.0881C465.115 23.2756 465.067 23.4474 464.97 23.6037C464.876 23.7571 464.753 23.8807 464.599 23.9744C464.446 24.0653 464.277 24.1108 464.092 24.1108ZM469.373 24.1193C468.716 24.1193 468.133 24.0128 467.621 23.7997C467.113 23.5838 466.714 23.2898 466.424 22.9176C466.134 22.5455 465.989 22.1236 465.989 21.652C465.989 21.2884 466.071 20.9545 466.236 20.6506C466.404 20.3438 466.631 20.0895 466.918 19.8878C467.205 19.6832 467.526 19.5526 467.881 19.4957V19.4361C467.415 19.3423 467.037 19.1165 466.748 18.7585C466.458 18.3977 466.313 17.9787 466.313 17.5014C466.313 17.0497 466.445 16.6477 466.709 16.2955C466.973 15.9403 467.336 15.6619 467.796 15.4602C468.259 15.2557 468.785 15.1534 469.373 15.1534C469.961 15.1534 470.485 15.2557 470.945 15.4602C471.408 15.6648 471.772 15.9446 472.036 16.2997C472.3 16.652 472.434 17.0526 472.437 17.5014C472.434 17.9815 472.286 18.4006 471.993 18.7585C471.701 19.1165 471.326 19.3423 470.868 19.4361V19.4957C471.218 19.5526 471.535 19.6832 471.819 19.8878C472.106 20.0895 472.333 20.3438 472.5 20.6506C472.671 20.9545 472.758 21.2884 472.76 21.652C472.758 22.1236 472.611 22.5455 472.321 22.9176C472.032 23.2898 471.631 23.5838 471.12 23.7997C470.611 24.0128 470.029 24.1193 469.373 24.1193ZM469.373 22.7642C469.665 22.7642 469.921 22.7116 470.14 22.6065C470.358 22.4986 470.529 22.3509 470.651 22.1634C470.776 21.973 470.839 21.7543 470.839 21.5071C470.839 21.2543 470.775 21.0312 470.647 20.8381C470.519 20.642 470.346 20.4886 470.127 20.3778C469.908 20.2642 469.657 20.2074 469.373 20.2074C469.091 20.2074 468.84 20.2642 468.618 20.3778C468.397 20.4886 468.222 20.642 468.094 20.8381C467.969 21.0312 467.907 21.2543 467.907 21.5071C467.907 21.7543 467.968 21.973 468.09 22.1634C468.212 22.3509 468.384 22.4986 468.606 22.6065C468.827 22.7116 469.083 22.7642 469.373 22.7642ZM469.373 18.8651C469.617 18.8651 469.834 18.8153 470.025 18.7159C470.215 18.6165 470.364 18.4787 470.472 18.3026C470.58 18.1264 470.634 17.9233 470.634 17.6932C470.634 17.4659 470.58 17.267 470.472 17.0966C470.364 16.9233 470.216 16.7884 470.029 16.6918C469.841 16.5923 469.623 16.5426 469.373 16.5426C469.125 16.5426 468.907 16.5923 468.716 16.6918C468.526 16.7884 468.377 16.9233 468.269 17.0966C468.164 17.267 468.111 17.4659 468.111 17.6932C468.111 17.9233 468.165 18.1264 468.273 18.3026C468.381 18.4787 468.53 18.6165 468.721 18.7159C468.911 18.8153 469.128 18.8651 469.373 18.8651ZM478.708 22.3636V21.9034C478.708 21.554 478.781 21.233 478.929 20.9403C479.08 20.6449 479.297 20.4091 479.581 20.233C479.868 20.054 480.217 19.9645 480.629 19.9645C481.047 19.9645 481.398 20.0526 481.682 20.2287C481.969 20.4048 482.185 20.6406 482.33 20.9361C482.477 21.2287 482.551 21.5511 482.551 21.9034V22.3636C482.551 22.7131 482.477 23.0355 482.33 23.331C482.182 23.6236 481.965 23.858 481.678 24.0341C481.391 24.2131 481.041 24.3026 480.629 24.3026C480.212 24.3026 479.861 24.2131 479.577 24.0341C479.293 23.858 479.077 23.6236 478.929 23.331C478.781 23.0355 478.708 22.7131 478.708 22.3636ZM479.948 21.9034V22.3636C479.948 22.5653 479.996 22.7557 480.092 22.9347C480.192 23.1136 480.371 23.2031 480.629 23.2031C480.888 23.2031 481.064 23.1151 481.158 22.9389C481.254 22.7628 481.303 22.571 481.303 22.3636V21.9034C481.303 21.696 481.257 21.5028 481.166 21.3239C481.075 21.1449 480.896 21.0554 480.629 21.0554C480.374 21.0554 480.196 21.1449 480.097 21.3239C479.997 21.5028 479.948 21.696 479.948 21.9034ZM474.229 17.3693V16.9091C474.229 16.5568 474.304 16.2344 474.455 15.9418C474.605 15.6463 474.823 15.4105 475.107 15.2344C475.394 15.0582 475.74 14.9702 476.146 14.9702C476.567 14.9702 476.919 15.0582 477.203 15.2344C477.487 15.4105 477.703 15.6463 477.851 15.9418C477.999 16.2344 478.073 16.5568 478.073 16.9091V17.3693C478.073 17.7216 477.997 18.044 477.847 18.3366C477.699 18.6293 477.482 18.8636 477.195 19.0398C476.911 19.2131 476.561 19.2997 476.146 19.2997C475.732 19.2997 475.381 19.2116 475.094 19.0355C474.81 18.8565 474.594 18.6222 474.446 18.3324C474.301 18.0398 474.229 17.7187 474.229 17.3693ZM475.477 16.9091V17.3693C475.477 17.5767 475.526 17.7685 475.622 17.9446C475.722 18.1207 475.896 18.2088 476.146 18.2088C476.408 18.2088 476.585 18.1207 476.679 17.9446C476.776 17.7685 476.824 17.5767 476.824 17.3693V16.9091C476.824 16.7017 476.779 16.5085 476.688 16.3295C476.597 16.1506 476.416 16.0611 476.146 16.0611C475.894 16.0611 475.719 16.152 475.622 16.3338C475.526 16.5156 475.477 16.7074 475.477 16.9091ZM474.791 24L480.791 15.2727H481.908L475.908 24H474.791Z" fill="#FF6A55"/>
</svg>
