<svg width="40" height="40" viewBox="0 0 40 40" fill="none" xmlns="http://www.w3.org/2000/svg">
<rect width="40" height="40" rx="20" fill="#CABDFF"/>
<path fill-rule="evenodd" clip-rule="evenodd" d="M17.4889 13.0539C17.376 12.527 16.624 12.5269 16.5111 13.0539L15.3166 18.6284C15.0202 20.0116 13.7978 20.9998 12.3832 20.9998H11C10.4477 20.9998 10 20.5521 10 19.9998C10 19.4475 10.4477 18.9998 11 18.9998H12.3832C12.8547 18.9998 13.2622 18.6704 13.361 18.2093L14.5555 12.6349C15.1201 9.99998 18.8799 9.99995 19.4445 12.6349L22.5111 26.9456C22.624 27.4726 23.376 27.4726 23.4889 26.9456L24.6834 21.3712C24.9798 19.988 26.2022 18.9998 27.6168 18.9998H29C29.5523 18.9998 30 19.4475 30 19.9998C30 20.5521 29.5523 20.9998 29 20.9998H27.6168C27.1453 20.9998 26.7378 21.3292 26.639 21.7902L25.4445 27.3647C24.8799 29.9996 21.1201 29.9996 20.5555 27.3647L17.4889 13.0539Z" fill="#1A1D1F"/>
</svg>
