<svg width="24" height="24" viewBox="0 0 24 24" fill="none" xmlns="http://www.w3.org/2000/svg">
<path fill-rule="evenodd" clip-rule="evenodd" d="M19.2902 14.1999C18.9332 14.3999 18.7342 14.6829 18.6612 15.0659C18.6222 15.2999 18.7062 15.6059 18.7722 15.8219C18.9952 16.5999 19.1842 17.2659 19.3282 17.8109C19.3892 18.0659 19.4332 18.4439 19.3282 18.6999C19.1612 19.0549 18.8172 19.3719 18.4062 19.3829C18.1622 19.3836 17.9212 19.3539 17.6832 19.2939C17.0874 19.1326 16.493 18.9659 15.9002 18.7939C15.3892 18.6389 14.8562 18.5499 14.4402 18.9719C14.3129 19.1134 14.201 19.2679 14.1062 19.4329L13.8662 19.8779C13.5817 20.4261 13.2707 20.9601 12.9342 21.4779C12.6789 21.8606 12.3342 22.0326 11.9002 21.9939C11.6514 21.9817 11.4169 21.8743 11.2452 21.6939C11.0479 21.4765 10.878 21.2357 10.7392 20.9769L9.87819 19.4219C9.81338 19.3075 9.74296 19.1964 9.66719 19.0889C9.30019 18.5889 8.71119 18.6049 8.18319 18.7609C7.57319 18.9443 6.96053 19.1203 6.34519 19.2889C6.18919 19.3269 6.02219 19.3489 5.86119 19.3719C5.63911 19.4123 5.40994 19.3807 5.20706 19.2818C5.00417 19.1829 4.83816 19.0218 4.73319 18.8219C4.60348 18.5947 4.5642 18.3269 4.62319 18.0719C4.67319 17.8109 4.73319 17.5719 4.78919 17.3439L5.28319 15.6219C5.34553 15.4399 5.36199 15.2452 5.33112 15.0553C5.30024 14.8653 5.22299 14.6859 5.10619 14.5329C4.99519 14.3889 4.76119 14.2159 4.41119 14.0269L3.04519 13.2769C2.8007 13.1394 2.56821 12.9815 2.35019 12.8049C1.99519 12.5219 1.93319 12.0269 2.06119 11.6049C2.16719 11.2829 2.51719 11.0389 2.81719 10.8659C3.34201 10.561 3.87175 10.2646 4.40619 9.97694C4.65319 9.85994 4.87819 9.70294 5.07219 9.51094C5.40619 9.08894 5.38319 8.69394 5.22819 8.17694C5.0206 7.5083 4.83153 6.83404 4.66119 6.15494C4.62112 5.99504 4.60097 5.83079 4.60119 5.66594C4.60119 5.36061 4.74519 5.08294 5.03319 4.83294C5.45019 4.49394 6.01719 4.62194 6.47819 4.75494L8.11119 5.22194C8.63919 5.37694 9.14519 5.43194 9.53919 5.04994C9.65519 4.93928 9.77386 4.77061 9.8952 4.54394C10.2612 3.86594 10.6172 3.23294 10.9722 2.63794C11.0282 2.54994 11.1062 2.45494 11.2062 2.34394C11.3178 2.22489 11.4547 2.13247 11.6069 2.07351C11.759 2.01455 11.9225 1.99057 12.0852 2.00334C12.2478 2.01611 12.4055 2.06531 12.5466 2.14729C12.6877 2.22927 12.8086 2.34194 12.9002 2.47694C13.0612 2.69994 13.2062 2.93794 13.3452 3.18294L14.1892 4.70494C14.5172 5.27694 15.0222 5.46594 15.7112 5.26094C16.3452 5.08294 16.9952 4.89394 17.6562 4.71594C17.8232 4.66594 18.0002 4.64394 18.1732 4.62194C18.3787 4.59285 18.5882 4.62473 18.7757 4.71361C18.9633 4.80249 19.1206 4.94447 19.2282 5.12194C19.4332 5.43194 19.4112 5.84394 19.3282 6.17694C19.1539 6.84662 18.9685 7.51338 18.7722 8.17694C18.726 8.31835 18.6926 8.46359 18.6722 8.61094C18.5842 9.11094 18.8392 9.55494 19.2832 9.79994L20.8502 10.6719C21.0842 10.7999 21.3062 10.9439 21.5172 11.0939C21.8885 11.3539 22.0459 11.7059 21.9892 12.1499C21.9754 12.2889 21.9327 12.4234 21.8638 12.5448C21.7949 12.6662 21.7014 12.7719 21.5892 12.8549C21.3839 13.0103 21.1615 13.1549 20.9222 13.2889L19.2902 14.1999ZM18.6832 13.1829C18.2029 13.4461 17.8299 13.8691 17.629 14.3786C17.4281 14.888 17.4119 15.4518 17.5832 15.9719C17.7612 16.6049 17.9282 17.1999 18.0952 17.7549C18.1282 17.8769 18.1552 18.0109 18.1732 18.1449C18.1732 18.1719 18.1672 18.1829 18.1452 18.1769C17.9258 18.1374 17.7088 18.0856 17.4952 18.0219L16.2612 17.6609C15.9423 17.5586 15.6123 17.4949 15.2782 17.4709C14.2452 17.4609 13.5332 18.0049 13.0562 18.8889C12.7214 19.5055 12.3767 20.1166 12.0222 20.7219L12.0062 20.7269H11.9882C11.9823 20.7255 11.9769 20.7228 11.9722 20.719C11.9675 20.7152 11.9637 20.7104 11.9612 20.7049L11.8612 20.5389C11.5152 19.9163 11.1652 19.2956 10.8112 18.6769C10.5544 18.2125 10.147 17.8495 9.65615 17.6477C9.16533 17.4459 8.62039 17.4174 8.11119 17.5669C7.5802 17.7101 7.05051 17.8581 6.52219 18.0109C6.29219 18.0789 6.05886 18.1343 5.82219 18.1769C5.81834 18.1758 5.81476 18.1738 5.81167 18.1713C5.80858 18.1687 5.80604 18.1655 5.80419 18.1619C5.80202 18.1586 5.80055 18.1548 5.79987 18.1508C5.79918 18.1469 5.79929 18.1428 5.80019 18.1389C5.99419 17.4003 6.19986 16.6649 6.41719 15.9329L6.43919 15.8439C6.47819 15.6779 6.52219 15.5109 6.52219 15.3439C6.54391 14.8792 6.4266 14.4185 6.18525 14.0208C5.94389 13.623 5.58945 13.3063 5.16719 13.1109C4.53119 12.7569 3.89786 12.3976 3.26719 12.0329C3.26415 12.0286 3.26198 12.0237 3.26084 12.0186C3.25969 12.0134 3.25957 12.0081 3.2605 12.0029C3.26143 11.9976 3.26339 11.9927 3.26625 11.9882C3.26912 11.9838 3.27284 11.9799 3.27719 11.9769C3.41719 11.8889 3.55619 11.8109 3.68319 11.7379L5.33319 10.8109C5.63718 10.6458 5.89999 10.4141 6.10204 10.1333C6.30409 9.85246 6.44019 9.52967 6.50019 9.18894C6.56719 8.75394 6.52519 8.30894 6.37819 7.89394C6.18219 7.21794 5.99153 6.54028 5.8062 5.86094C5.80794 5.85436 5.81134 5.84834 5.81606 5.84344C5.82079 5.83854 5.82668 5.83493 5.83319 5.83294H5.85019C5.98219 5.85494 6.11186 5.88261 6.23919 5.91594L7.58919 6.30594C8.08919 6.45594 8.46686 6.53328 8.72219 6.53794C9.03723 6.54664 9.3507 6.49051 9.64314 6.37302C9.93557 6.25552 10.2007 6.07919 10.4222 5.85494C10.5775 5.69961 10.7332 5.48294 10.8892 5.20494C11.2472 4.5595 11.6103 3.91681 11.9782 3.27694C11.9831 3.27372 11.9888 3.272 11.9947 3.272C12.0006 3.272 12.0063 3.27372 12.0112 3.27694L12.0222 3.28294C12.1222 3.43294 12.2062 3.57694 12.2832 3.71094L13.1062 5.18894C13.2952 5.52194 13.5222 5.85494 13.8282 6.07694C14.2442 6.38831 14.7527 6.551 15.2722 6.53894C15.6522 6.51094 16.0282 6.43694 16.3892 6.31594L17.6112 5.95594C17.7985 5.90661 17.9875 5.86561 18.1782 5.83294L18.1832 5.84394V5.85494C18.1615 5.99398 18.1301 6.13132 18.0892 6.26594C17.9334 6.83074 17.7723 7.3941 17.6062 7.95594C17.3452 8.85594 17.4892 9.77694 18.1612 10.4329C18.3562 10.6159 18.6722 10.8269 19.1172 11.0659C19.6476 11.3547 20.1737 11.6514 20.6952 11.9559C20.7499 11.9893 20.7499 12.0226 20.6952 12.0559C20.2342 12.3329 19.7612 12.5939 19.2952 12.8559L18.6892 13.1889L18.6832 13.1829ZM15.9832 15.9379C16.7655 15.1458 17.2961 14.14 17.5082 13.0471C17.7203 11.9542 17.6044 10.8229 17.1751 9.79571C16.7458 8.76849 16.0223 7.89116 15.0957 7.27412C14.169 6.65708 13.0805 6.32788 11.9672 6.32794C11.227 6.32911 10.4943 6.47651 9.81117 6.76165C9.12807 7.0468 8.50803 7.46409 7.98666 7.98955C7.46528 8.51501 7.05285 9.13829 6.77305 9.82359C6.49325 10.5089 6.35158 11.2427 6.35619 11.9829C6.36043 13.4781 6.95776 14.9105 8.01705 15.9656C9.07635 17.0208 10.511 17.6125 12.0062 17.6109C13.5003 17.604 14.9307 17.0045 15.9832 15.9439V15.9379ZM13.2952 11.3159C13.5556 11.1769 13.8467 11.1056 14.1419 11.1086C14.437 11.1116 14.7267 11.1887 14.9842 11.3329C15.1282 11.3999 15.2392 11.4549 15.4062 11.3329L15.4392 11.3159C15.5342 11.2499 15.6282 11.1879 15.6782 11.0769C15.7562 10.8999 15.7002 10.7389 15.5332 10.6329C15.1229 10.3893 14.6587 10.2507 14.182 10.2294C13.7052 10.2081 13.2306 10.3048 12.8002 10.5109C12.5562 10.6329 12.0952 10.8889 12.0502 11.1829L12.0332 11.2609C12.0172 11.3609 12.0002 11.4549 12.0002 11.5499V14.5499H12.8782C12.9089 14.5499 12.9393 14.5439 12.9676 14.5321C12.9959 14.5203 13.0217 14.5031 13.0433 14.4813C13.065 14.4596 13.0821 14.4338 13.0937 14.4054C13.1054 14.377 13.1113 14.3466 13.1112 14.3159V11.7769C13.1112 11.6109 13.1112 11.3999 13.2952 11.3109V11.3159ZM10.9392 10.9829C10.8342 11.2829 10.5672 11.3379 10.2892 11.2829C9.85619 11.1939 9.34519 11.2269 8.95619 11.4389C8.90792 11.4682 8.85311 11.485 8.79672 11.4878C8.74033 11.4906 8.68413 11.4793 8.63319 11.4549C8.51147 11.3929 8.40546 11.304 8.32319 11.1949C8.29835 11.1611 8.28048 11.1227 8.27064 11.0819C8.2608 11.0411 8.25919 10.9988 8.26589 10.9573C8.27259 10.9159 8.28748 10.8762 8.30968 10.8406C8.33188 10.805 8.36095 10.7742 8.3952 10.7499C8.72791 10.5519 9.09727 10.4232 9.48102 10.3717C9.86478 10.3201 10.255 10.3467 10.6282 10.4499C10.8892 10.5049 11.0392 10.7049 10.9392 10.9829Z" fill="#171717"/>
</svg>
